<?xml version="1.0" encoding="UTF-8"?>
<svg xmlns="http://www.w3.org/2000/svg" viewBox="0 0 398.69 282.16">
  <defs>
    <style>
      .cls-1 {
        opacity: .8;
      }

      .cls-1, .cls-2, .cls-3 {
        fill: #fafbfb;
      }

      .cls-4 {
        fill: #fff;
      }

      .cls-5 {
        mix-blend-mode: multiply;
      }

      .cls-5, .cls-6 {
        fill: #5274b8;
      }

      .cls-7 {
        isolation: isolate;
      }

      .cls-8 {
        fill: #010101;
        opacity: .3;
      }

      .cls-9 {
        opacity: .65;
      }

      .cls-2 {
        opacity: .1;
      }

      .cls-10 {
        fill: #a5c3e7;
        stroke: #fff;
        stroke-miterlimit: 10;
        stroke-width: 6px;
      }
    </style>
  </defs>
  <g class="cls-7">
    <g id="Layer_1" data-name="Layer 1">
      <g class="cls-9">
        <g>
          <g>
            <polygon class="cls-5" points="364.35 281.05 398.69 133.68 220.37 91.35 186.1 238.41 364.35 281.05"/>
            <polygon class="cls-1" points="364.35 281.05 398.69 133.68 220.37 91.35 186.1 238.41 364.35 281.05"/>
          </g>
          <polygon class="cls-3" points="362.45 282.16 396.77 134.89 218.45 92.56 184.2 239.53 362.45 282.16"/>
          <g>
            <polygon class="cls-6" points="380.77 145.33 353.2 263.62 200.6 227.4 228.17 109.11 380.77 145.33"/>
            <polygon class="cls-1" points="380.77 145.33 353.2 263.62 200.6 227.4 228.17 109.11 380.77 145.33"/>
          </g>
        </g>
        <g>
          <polygon class="cls-6" points="354.21 259.3 353.2 263.62 273.93 244.8 299.83 229.35 326.36 213.5 354.21 259.3"/>
          <polygon class="cls-8" points="354.21 259.3 353.2 263.62 273.93 244.8 299.83 229.35 326.36 213.5 354.21 259.3"/>
        </g>
        <g>
          <polygon class="cls-6" points="318.88 255.47 200.6 227.4 202.82 217.89 265.53 182.32 299.83 229.35 318.88 255.47"/>
          <polygon class="cls-8" points="318.88 255.47 200.6 227.4 202.82 217.89 265.53 182.32 299.83 229.35 318.88 255.47"/>
        </g>
        <g>
          <ellipse class="cls-6" cx="313.99" cy="168.16" rx="18.88" ry="18.56" transform="translate(112.85 462.12) rotate(-83.79)"/>
          <ellipse class="cls-2" cx="313.99" cy="168.16" rx="18.88" ry="18.56" transform="translate(112.85 462.12) rotate(-83.79)"/>
        </g>
      </g>
      <g class="cls-9">
        <g>
          <g>
            <polygon class="cls-5" points="180.29 221.02 167.24 89.77 1.3 106.27 14.34 237.37 180.29 221.02"/>
            <polygon class="cls-1" points="180.29 221.02 167.24 89.77 1.3 106.27 14.34 237.37 180.29 221.02"/>
          </g>
          <polygon class="cls-3" points="179.03 222.98 165.94 91.35 0 107.86 13.08 239.33 179.03 222.98"/>
          <g>
            <rect class="cls-6" x="18.23" y="111.68" width="142.7" height="108.72" transform="translate(-15.99 9.68) rotate(-5.68)"/>
            <rect class="cls-1" x="18.23" y="111.68" width="142.7" height="108.72" transform="translate(-15.99 9.68) rotate(-5.68)"/>
          </g>
        </g>
        <g>
          <circle class="cls-6" cx="58.75" cy="151.99" r="19.96" transform="translate(-96.37 102.09) rotate(-51.04)"/>
          <circle class="cls-2" cx="58.75" cy="151.99" r="19.96" transform="translate(-96.37 102.09) rotate(-51.04)"/>
        </g>
        <g>
          <path class="cls-6" d="m148.07,178.77c-2.37-8.42-8.43-15.16-16.16-18.58,0,0,0,0-.01,0-.02-.23-.01-.45-.03-.68-1.59-15.96-15.81-27.61-31.77-26.02-12.41,1.23-22.18,10.12-25.18,21.52-.95-.06-1.92-.07-2.9.03-7.28.72-13.04,5.85-14.95,12.47-3.75-.48-7.75-.05-11.82,2.08-7.42,3.87-12.16,11.77-11.51,20.11.91,11.64,11.2,20.21,22.76,19.06,0,0,.01,0,.02,0l40.83-4.06,37.41-3.72c8.56-.85,15.13-8.36,14.33-16.92,0-.06-.01-.11-.02-.17-.17-1.75-.51-3.46-.98-5.09Z"/>
          <path class="cls-8" d="m148.07,178.77c-2.37-8.42-8.43-15.16-16.16-18.58,0,0,0,0-.01,0-.02-.23-.01-.45-.03-.68-1.59-15.96-15.81-27.61-31.77-26.02-12.41,1.23-22.18,10.12-25.18,21.52-.95-.06-1.92-.07-2.9.03-7.28.72-13.04,5.85-14.95,12.47-3.75-.48-7.75-.05-11.82,2.08-7.42,3.87-12.16,11.77-11.51,20.11.91,11.64,11.2,20.21,22.76,19.06,0,0,.01,0,.02,0l40.83-4.06,37.41-3.72c8.56-.85,15.13-8.36,14.33-16.92,0-.06-.01-.11-.02-.17-.17-1.75-.51-3.46-.98-5.09Z"/>
        </g>
      </g>
      <g>
        <path class="cls-10" d="m138.08,58.07c-.82-2.42-1.27-5.01-1.27-7.69,0-13.92,11.91-25.21,26.59-25.21,9.14,0,17.2,4.37,21.98,11.02,6.94-19.3,26.23-33.19,48.94-33.19,28.55,0,51.7,21.94,51.7,49,0,1-.03,1.99-.1,2.97,19.66,4.14,34.36,20.76,34.36,40.64,0,23-19.67,41.64-43.93,41.64h-131.64c-23.21,0-42.03-17.84-42.03-39.84,0-19.86,15.33-36.32,35.38-39.34h0Z"/>
        <path class="cls-4" d="m234.63,72.79c-1.44,0-2.61,1.17-2.61,2.61h0v17.56h-40.34v-17.56c0-1.44-1.17-2.61-2.61-2.61s-2.61,1.17-2.61,2.61v20.17c0,.69.28,1.36.76,1.85.48.48,1.16.76,1.85.76h45.56c.69,0,1.36-.28,1.85-.76.48-.48.76-1.16.76-1.85v-20.17c0-1.44-1.17-2.61-2.61-2.61h0Z"/>
        <path class="cls-4" d="m204.95,69.55l4.63-2.32v20.16c0,1.4,1.14,2.54,2.54,2.54s2.54-1.14,2.54-2.54v-20.28l5.28,2.46c.73.34,1.61.12,2.1-.52.49-.64.47-1.54-.06-2.16l-8.52-10c-.33-.39-.81-.6-1.31-.6h-.03c-.51,0-1,.25-1.32.65l-7.96,10c-.51.63-.5,1.53,0,2.16.51.63,1.38.82,2.11.46h0Z"/>
      </g>
    </g>
  </g>
</svg>