<?xml version="1.0" encoding="UTF-8"?>
<svg id="Layer_1" data-name="Layer 1" xmlns="http://www.w3.org/2000/svg" xmlns:xlink="http://www.w3.org/1999/xlink" viewBox="0 0 966.6 572.48">
  <defs>
    <style>
      .cls-1 {
        filter: url(#drop-shadow-4);
      }

      .cls-1, .cls-2 {
        fill: #fff;
      }

      .cls-2 {
        filter: url(#drop-shadow-3);
      }

      .cls-3 {
        filter: url(#drop-shadow-1);
      }

      .cls-4 {
        fill: #a2c5f9;
        filter: url(#drop-shadow-2);
        stroke: #fff;
        stroke-miterlimit: 10;
        stroke-width: 14px;
      }
    </style>
    <filter id="drop-shadow-1" filterUnits="userSpaceOnUse">
      <feOffset dx="3" dy="3"/>
      <feGaussianBlur result="blur" stdDeviation="9"/>
      <feFlood flood-color="#1c1c1c" flood-opacity=".75"/>
      <feComposite in2="blur" operator="in"/>
      <feComposite in="SourceGraphic"/>
    </filter>
    <filter id="drop-shadow-2" filterUnits="userSpaceOnUse">
      <feOffset dx="1.93" dy="-3.87"/>
      <feGaussianBlur result="blur-2" stdDeviation="3.87"/>
      <feFlood flood-color="#000" flood-opacity=".16"/>
      <feComposite in2="blur-2" operator="in"/>
      <feComposite in="SourceGraphic"/>
    </filter>
    <filter id="drop-shadow-3" filterUnits="userSpaceOnUse">
      <feOffset dx="3" dy="3"/>
      <feGaussianBlur result="blur-3" stdDeviation="2"/>
      <feFlood flood-color="#000" flood-opacity=".75"/>
      <feComposite in2="blur-3" operator="in"/>
      <feComposite in="SourceGraphic"/>
    </filter>
    <filter id="drop-shadow-4" filterUnits="userSpaceOnUse">
      <feOffset dx="3" dy="3"/>
      <feGaussianBlur result="blur-4" stdDeviation="2"/>
      <feFlood flood-color="#000" flood-opacity=".75"/>
      <feComposite in2="blur-4" operator="in"/>
      <feComposite in="SourceGraphic"/>
    </filter>
  </defs>
  <path d="m874.53,260.84l21.91,148.78c6.11-7.22,15.16-12.46,25.78-14.02,21.48-3.16,41.2,9.91,44.04,29.19s-12.27,37.48-33.75,40.65-41.2-9.91-44.04-29.19l-19.17-130.2-128.23-2.88,14.92,101.33c6.11-7.22,15.16-12.46,25.78-14.02,21.48-3.16,41.2,9.91,44.04,29.19,2.84,19.28-12.27,37.48-33.75,40.65s-41.2-9.91-44.04-29.19l-25.58-173.69,152.1,3.42Z"/>
  <path d="m368.72,499.28c-6.44-24.28,7.17-53.19,31.77-60.75.66-.2,1.31-.38,1.98-.54-4.13-4.78-8.24-9.54-12.33-14.26-3.82-4.38-7.68-8.74-11.58-13.07-12.89.57-26.97,2-39.39-3.21-7.54-3.44-14.06-8.95-19.33-15.09-7.89-9.22-13.21-21.24-12.37-33.54-.19-.4-.08-.89.29-1.17l.92-.72c4.15-3.34,9.86-3.77,14.94-2.84,7.51,1.19,14.05,5.65,19.45,10.7,6.63,6.21,12.56,13.62,18.73,20.24,3.14,3.45,6.44,7.04,9.81,10.69,2.65-.51,5.3-1.02,7.96-1.44,2.91-.5,6.13-.77,9.07-1.09,3.78-.28,7.7-.39,11.49-.25,3.45.04,6.89.42,10.32.8,2.1.33,4.72.74,6.81,1.11,1.51.34,5.21,1.18,6.72,1.55l1.1.32,2.2.65c14.62,4.26,28.37,11.52,40.29,20.98,10.5,8.57,19.98,18.81,26.49,30.77,4.34,8.02,7.37,16.96,7.62,26.13.6,15.08-6.96,29.11-17.14,39.77-1.32,1.38-2.69,2.71-4.11,4.01,10.18,11.6,20.39,22.93,30.66,33.71,6.09,5.92,13.18,11.29,21.61,13.06,14.93,3.2,31.33-4.7,37-19,1.57-3.83,2.47-7.98,2.56-12.13l.03-1.56-.08-1.55-.04-.78c-.29-2.81-.84-5.65-1.85-8.29-2.68-7.41-8.31-13.43-15.18-17.18,4.07,7.28,2.91,16.65-3.37,22.7-7.48,7.2-19.37,6.97-26.57-.5-7.2-7.48-6.97-19.37.5-26.57,5.69-5.48,13.4-5.38,13.91-5.42,3.98-.04,8.01.5,11.8,1.69l1.74.58.44.15.43.17.85.35c.45.2,1.27.51,1.68.73,1.58.76,3.36,1.74,4.82,2.68.49.34,1.8,1.26,2.26,1.59.55.44,1.55,1.26,2.15,1.74,4.17,3.68,7.63,8.24,9.8,13.38.25.51.47,1.19.67,1.74l.32.87c1.01,2.91,1.57,5.99,1.88,9.05l.05.92.09,1.85c-.02.46-.02,2.39-.05,2.77-.07.63-.16,2.09-.24,2.75-.84,6.73-3.31,13.27-7.38,18.73l-1.16,1.45c-.2.24-.38.49-.59.72-.63.65-1.28,1.39-1.92,2.03l-1.38,1.25-.69.62c-.5.37-1.67,1.33-2.2,1.7-.71.51-1.59,1.04-2.31,1.54-.26.18-.53.31-.8.46l-1.61.9c-6.53,3.38-14,5-21.35,4.47l-.92-.05-.92-.12-1.83-.25c-2.37-.44-4.87-1.09-7.12-1.98-5.08-1.94-9.7-4.96-13.85-8.39-5.35-4.41-10.1-9.72-14.65-14.79-5.99-6.51-12.38-13.69-18.22-20.29-1.11-1.25-2.22-2.51-3.34-3.77-20.18,16.12-48.15,23.91-72.69,14.05-16.35-6.41-30.17-20.21-34.66-37.51Zm-20.45-120.15c-7.24-6.79-16.1-15.52-26-17.22-3.39-.52-7.02-.75-10.48-1.06,1.55,9.92,7.1,18.73,14.44,25.43,3.81,3.53,8.21,6.61,12.82,8.88,1.67.79,3.31,1.48,5.05,1.95,2.88.72,6.05,1.01,9.02,1,4.24-.04,8.45-.59,12.66-1.31-5.71-6.03-11.53-11.94-17.51-17.67Zm139.39,127.41c7.5-10.83,10.97-23.8,6.87-36.61-.29-1.09-.94-2.68-1.33-3.75-.31-.64-.91-2.11-1.23-2.72-1.62-3.26-3.59-6.41-5.8-9.32-5.66-7.47-12.89-13.78-20.54-19.16-.93-.7-2.35-1.67-3.32-2.27l-3.38-2.18c-1.02-.62-2.41-1.41-3.47-2.02-8.03-4.62-16.69-8.37-25.5-11.18-.56-.18-4.31-1.29-4.74-1.43-.68-.18-2.16-.53-2.88-.72-1.05-.26-2.8-.76-3.84-.94-2.55-.52-5.16-1.14-7.75-1.52-.58-.1-2.38-.4-2.92-.51-1.63-.23-3.26-.41-4.89-.64-1.3-.21-2.61-.28-3.92-.41l-1.97-.19c-.66-.06-1.31-.15-1.97-.16-3.25-.19-6.52-.3-9.79-.31,3.03,3.27,6.02,6.5,8.87,9.6,5.09,5.47,10.17,11.07,15.26,16.77,10.93-.79,22.06,2.71,30.62,9.48,6.75,5.32,12.02,13.22,13.22,21.67.31,2.3-2.83,3.29-3.88,1.17-5.18-11.13-16.7-18.27-28.67-19.53,19.27,22.08,38.53,45.15,57.9,67.3,3.4-3.15,6.45-6.64,9.04-10.43Zm-79.87,21.03c20.88,12.5,47.69,7.69,66.46-6.89-20.46-23.17-41.2-47.25-61.63-70.94-2.61.33-5.17.96-7.63,1.92-17.66,7.29-26.11,29.71-20.55,47.5,3.66,11.99,12.49,22.07,23.35,28.41Z"/>
  <path d="m149.41,311.09c35.31,0,63.95,25.72,63.95,57.4s-28.63,57.4-63.95,57.4-63.9-25.68-63.9-57.4v-154.69c-5.29,3.76-12.59,7.26-22.58,9.81-30.07,7.62-45.93,34.95-51.58,46.92-.94,1.93-2.87,3.05-4.88,3.05-.99,0-2.02-.27-2.91-.85-1.7-1.12-2.64-3.14-2.37-5.2,3.9-32.49,15.59-51.49,49.74-66.5,33.92-14.97,34.59-46.83,34.59-49.29v-25.81c-5.29,3.76-12.59,7.21-22.58,9.77-30.07,7.66-45.93,34.95-51.58,46.92-.94,1.97-2.87,3.09-4.88,3.09-.99,0-2.02-.31-2.91-.9-1.7-1.12-2.64-3.14-2.37-5.15,3.9-32.53,15.59-51.53,49.74-66.54,33.92-14.92,34.59-46.83,34.59-49.25v-.18h19.13v263.85c11.52-10.17,27.33-16.45,44.77-16.45Z"/>
  <g class="cls-3">
    <path class="cls-4" d="m274.08,151.18c-1.91-5.66-2.96-11.69-2.96-17.96,0-32.5,27.79-58.84,62.07-58.84,21.33,0,40.14,10.2,51.31,25.73,16.2-45.05,61.22-77.46,114.24-77.46,66.64,0,120.66,51.21,120.66,114.38,0,2.33-.08,4.64-.23,6.93,45.88,9.67,80.2,48.45,80.2,94.85,0,53.68-45.9,97.19-102.53,97.19h-307.25c-54.18,0-98.1-41.63-98.1-92.99,0-46.35,35.78-84.77,82.59-91.82Z"/>
    <path class="cls-2" d="m499.44,185.55c-3.36,0-6.09,2.73-6.09,6.09h0v40.98h-94.15v-40.98c0-3.36-2.73-6.09-6.09-6.09s-6.09,2.73-6.09,6.09v47.07c0,1.6.65,3.17,1.78,4.31,1.13,1.13,2.7,1.78,4.31,1.78h106.33c1.6,0,3.17-.65,4.31-1.78,1.13-1.13,1.78-2.7,1.78-4.31v-47.07c0-3.36-2.73-6.09-6.09-6.09Z"/>
    <path class="cls-1" d="m430.15,177.98l10.81-5.41v47.06c0,3.27,2.65,5.92,5.92,5.92s5.92-2.65,5.92-5.92v-47.34l12.33,5.74c1.71.8,3.75.29,4.9-1.21,1.14-1.5,1.09-3.6-.14-5.04l-19.89-23.33c-.77-.9-1.88-1.41-3.06-1.41h-.07c-1.2.02-2.33.58-3.08,1.51l-18.59,23.33c-1.18,1.48-1.17,3.57.02,5.04,1.19,1.47,3.23,1.91,4.92,1.07Z"/>
  </g>
</svg>